<?xml version="1.0" encoding="UTF-8"?>
<mxfile host="app.diagrams.net">
  <diagram name="OmniAnswer Architecture" id="architecture">
    <mxGraphModel dx="1000" dy="1000" grid="1" gridSize="10" guides="1" tooltips="1" connect="1" arrows="1" fold="1" page="1" pageScale="1" pageWidth="827" pageHeight="1169" math="0" shadow="0">
      <root>
        <mxCell id="0" />
        <mxCell id="1" parent="0" />
        <!-- User Query -->
        <mxCell id="2" value="User Query" style="rounded=1;whiteSpace=wrap;html=1;fillColor=#dae8fc;strokeColor=#6c8ebf;" vertex="1" parent="1">
          <mxGeometry x="60" y="60" width="120" height="40" as="geometry" />
        </mxCell>
        <!-- ModalityAgent -->
        <mxCell id="3" value="ModalityAgent" style="rounded=1;whiteSpace=wrap;html=1;fillColor=#e1d5e7;strokeColor=#9673a6;" vertex="1" parent="1">
          <mxGeometry x="220" y="60" width="140" height="40" as="geometry" />
        </mxCell>
        <!-- Arrow: User Query -> ModalityAgent -->
        <mxCell id="4" style="edgeStyle=orthogonalEdgeStyle;endArrow=block;html=1;strokeColor=#6c8ebf;" edge="1" parent="1" source="2" target="3">
          <mxGeometry relative="1" as="geometry" />
        </mxCell>
        <!-- ParaphraseAgent -->
        <mxCell id="5" value="ParaphraseAgent" style="rounded=1;whiteSpace=wrap;html=1;fillColor=#fff2cc;strokeColor=#d6b656;" vertex="1" parent="1">
          <mxGeometry x="400" y="60" width="140" height="40" as="geometry" />
        </mxCell>
        <!-- Arrow: ModalityAgent -> ParaphraseAgent -->
        <mxCell id="6" style="edgeStyle=orthogonalEdgeStyle;endArrow=block;html=1;strokeColor=#9673a6;" edge="1" parent="1" source="3" target="5">
          <mxGeometry relative="1" as="geometry" />
        </mxCell>
        <!-- MultiModalTeam -->
        <mxCell id="7" value="MultiModalTeam" style="rounded=1;whiteSpace=wrap;html=1;fillColor=#d5e8d4;strokeColor=#82b366;" vertex="1" parent="1">
          <mxGeometry x="580" y="60" width="160" height="40" as="geometry" />
        </mxCell>
        <!-- Arrow: ParaphraseAgent -> MultiModalTeam -->
        <mxCell id="8" style="edgeStyle=orthogonalEdgeStyle;endArrow=block;html=1;strokeColor=#d6b656;" edge="1" parent="1" source="5" target="7">
          <mxGeometry relative="1" as="geometry" />
        </mxCell>
        <!-- TextAgent -->
        <mxCell id="9" value="TextAgent" style="rounded=1;whiteSpace=wrap;html=1;fillColor=#f8cecc;strokeColor=#b85450;" vertex="1" parent="1">
          <mxGeometry x="540" y="140" width="100" height="40" as="geometry" />
        </mxCell>
        <!-- ImageAgent -->
        <mxCell id="10" value="ImageAgent" style="rounded=1;whiteSpace=wrap;html=1;fillColor=#f8cecc;strokeColor=#b85450;" vertex="1" parent="1">
          <mxGeometry x="680" y="140" width="100" height="40" as="geometry" />
        </mxCell>
        <!-- VideoAgent -->
        <mxCell id="11" value="VideoAgent" style="rounded=1;whiteSpace=wrap;html=1;fillColor=#f8cecc;strokeColor=#b85450;" vertex="1" parent="1">
          <mxGeometry x="820" y="140" width="100" height="40" as="geometry" />
        </mxCell>
        <!-- Arrows: MultiModalTeam -> Agents -->
        <mxCell id="12" style="edgeStyle=orthogonalEdgeStyle;endArrow=block;html=1;strokeColor=#82b366;" edge="1" parent="1" source="7" target="9">
          <mxGeometry relative="1" as="geometry" />
        </mxCell>
        <mxCell id="13" style="edgeStyle=orthogonalEdgeStyle;endArrow=block;html=1;strokeColor=#82b366;" edge="1" parent="1" source="7" target="10">
          <mxGeometry relative="1" as="geometry" />
        </mxCell>
        <mxCell id="14" style="edgeStyle=orthogonalEdgeStyle;endArrow=block;html=1;strokeColor=#82b366;" edge="1" parent="1" source="7" target="11">
          <mxGeometry relative="1" as="geometry" />
        </mxCell>
        <!-- Aggregated Multi-modal Answer -->
        <mxCell id="15" value="Aggregated Multi-modal Answer" style="rounded=1;whiteSpace=wrap;html=1;fillColor=#e1d5e7;strokeColor=#9673a6;" vertex="1" parent="1">
          <mxGeometry x="680" y="220" width="220" height="40" as="geometry" />
        </mxCell>
        <!-- Arrows: Agents -> Aggregated Answer (with curved connectors to avoid overlap) -->
        <mxCell id="16" style="edgeStyle=elbowEdgeStyle;elbow=vertical;endArrow=block;html=1;strokeColor=#b85450;" edge="1" parent="1" source="9" target="15">
          <mxGeometry relative="1" as="geometry">
            <Array as="points">
              <mxPoint x="590" y="200" />
            </Array>
          </mxGeometry>
        </mxCell>
        <mxCell id="17" style="edgeStyle=elbowEdgeStyle;elbow=vertical;endArrow=block;html=1;strokeColor=#b85450;" edge="1" parent="1" source="10" target="15">
          <mxGeometry relative="1" as="geometry">
            <Array as="points">
              <mxPoint x="730" y="200" />
            </Array>
          </mxGeometry>
        </mxCell>
        <mxCell id="18" style="edgeStyle=elbowEdgeStyle;elbow=vertical;endArrow=block;html=1;strokeColor=#b85450;" edge="1" parent="1" source="11" target="15">
          <mxGeometry relative="1" as="geometry">
            <Array as="points">
              <mxPoint x="870" y="200" />
            </Array>
          </mxGeometry>
        </mxCell>
      </root>
    </mxGraphModel>
  </diagram>
</mxfile> 